<?xml version="1.0" standalone="no"?>
<!DOCTYPE svg PUBLIC "-//W3C//DTD SVG 20010904//EN"
 "http://www.w3.org/TR/2001/REC-SVG-20010904/DTD/svg10.dtd">
<svg version="1.0" xmlns="http://www.w3.org/2000/svg"
 width="250.000000pt" height="250.000000pt" viewBox="0 0 250.000000 250.000000"
 preserveAspectRatio="xMidYMid meet">
<metadata>
Created by potrace 1.11, written by Peter Selinger 2001-2013
</metadata>
<g transform="translate(0.000000,250.000000) scale(0.100000,-0.100000)"
fill="#000000" stroke="none">
<path d="M1585 2190 c-60 -15 -143 -41 -184 -56 l-75 -29 0 -827 c0 -455 3
-830 6 -834 4 -3 19 2 35 13 33 22 128 65 193 86 55 18 93 26 210 43 54 7 172
5 222 -5 29 -6 67 -12 83 -14 63 -10 163 -40 269 -83 60 -24 111 -42 114 -40
2 3 4 369 5 815 0 637 -2 813 -12 825 -18 22 -153 72 -287 106 -108 28 -127
30 -292 29 -160 -1 -188 -3 -287 -29z"/>
<path d="M138 2069 c-34 -17 -38 -23 -38 -59 0 -22 2 -40 5 -40 3 0 23 9 44
20 35 17 39 23 39 60 0 22 -2 40 -6 40 -4 -1 -24 -10 -44 -21z"/>
<path d="M1188 2039 l-98 -50 -1 -42 c-1 -47 -1 -121 0 -154 1 -22 6 -21 106
29 l105 53 0 107 c0 60 -3 108 -7 107 -5 0 -52 -23 -105 -50z"/>
<path d="M320 2027 c-55 -33 -55 -34 -56 -84 l-2 -51 29 8 c16 5 42 18 57 29
23 17 27 26 27 75 0 31 1 56 0 56 0 0 -25 -15 -55 -33z"/>
<path d="M948 1969 l-98 -49 0 -100 c0 -55 3 -100 6 -100 3 0 48 21 100 46
l94 45 0 105 c0 57 -1 104 -2 103 -2 0 -47 -22 -100 -50z"/>
<path d="M730 1968 c-41 -21 -79 -39 -83 -41 -10 -3 -13 -164 -4 -174 4 -3 47
13 95 38 l87 44 -1 78 c0 42 -4 80 -10 85 -5 4 -43 -10 -84 -30z"/>
<path d="M513 1950 l-63 -29 0 -66 c0 -36 2 -65 5 -65 2 0 30 11 61 25 31 14
63 25 70 25 11 0 14 17 14 70 0 50 -4 70 -12 69 -7 0 -41 -13 -75 -29z"/>
<path d="M1200 1809 c-52 -27 -98 -50 -102 -51 -8 -3 -11 -48 -9 -155 l1 -72
105 52 104 52 1 113 c0 61 -1 111 -2 111 -2 -1 -46 -24 -98 -50z"/>
<path d="M133 1833 c-30 -15 -33 -21 -33 -61 0 -24 3 -42 8 -40 4 2 24 10 45
18 35 13 37 17 37 57 0 48 -7 51 -57 26z"/>
<path d="M340 1800 c-14 -11 -30 -20 -36 -20 -25 0 -45 -38 -43 -81 1 -24 4
-47 6 -51 4 -7 66 25 94 49 11 9 15 28 14 63 -1 28 -4 52 -6 54 -2 3 -15 -4
-29 -14z"/>
<path d="M734 1729 c-43 -22 -83 -44 -87 -49 -5 -4 -9 -39 -9 -76 0 -114 -6
-107 60 -75 31 15 72 34 90 41 17 7 32 15 33 19 5 28 4 181 -1 181 -4 0 -42
-18 -86 -41z"/>
<path d="M960 1735 c-36 -20 -75 -41 -87 -47 -22 -10 -23 -18 -23 -110 0 -54
2 -98 5 -98 3 0 48 21 100 47 l95 48 0 97 c0 72 -3 98 -12 98 -7 0 -42 -16
-78 -35z"/>
<path d="M523 1712 l-73 -36 0 -63 c0 -35 4 -63 9 -63 5 0 39 14 75 31 l66 31
0 69 c0 38 -1 69 -2 68 -2 0 -36 -17 -75 -37z"/>
<path d="M138 1603 c-36 -14 -38 -18 -38 -59 l0 -43 44 16 c41 15 44 19 44 55
1 20 -2 39 -6 42 -4 2 -24 -3 -44 -11z"/>
<path d="M1193 1570 c-86 -41 -103 -53 -104 -72 -2 -78 0 -190 4 -194 3 -3 50
18 106 45 l101 51 0 110 c0 61 -1 110 -2 109 -2 0 -49 -22 -105 -49z"/>
<path d="M309 1551 c-43 -27 -46 -32 -47 -74 -1 -25 2 -48 7 -52 15 -9 101 37
102 54 5 52 2 95 -7 98 -5 2 -30 -10 -55 -26z"/>
<path d="M948 1499 l-98 -49 0 -103 0 -104 100 51 100 51 0 103 c0 56 -1 102
-2 101 -2 0 -47 -22 -100 -50z"/>
<path d="M726 1495 l-90 -42 1 -82 c0 -45 3 -85 6 -88 4 -3 46 13 95 36 l88
42 -1 84 c-1 47 -3 86 -6 89 -2 2 -44 -16 -93 -39z"/>
<path d="M518 1484 l-68 -34 0 -65 c0 -36 4 -65 8 -65 5 0 27 9 50 20 23 11
53 25 67 30 23 9 25 14 25 80 0 38 -3 70 -7 69 -5 -1 -38 -16 -75 -35z"/>
<path d="M133 1360 c-27 -16 -33 -26 -33 -55 0 -39 6 -41 55 -21 32 14 35 18
33 55 -1 46 -9 49 -55 21z"/>
<path d="M1205 1334 c-49 -24 -96 -43 -102 -43 -13 -1 -15 -28 -15 -174 0 -27
2 -51 5 -53 5 -6 177 83 195 100 9 9 12 41 10 112 l-3 100 -90 -42z"/>
<path d="M325 1324 c-28 -15 -53 -31 -56 -37 -10 -15 -7 -107 3 -107 13 0 98
50 99 58 2 9 6 112 5 112 -1 0 -24 -12 -51 -26z"/>
<path d="M948 1262 l-98 -47 0 -102 c0 -57 2 -103 5 -103 3 0 48 21 100 48
l95 47 0 103 c0 56 -1 102 -2 101 -2 0 -47 -22 -100 -47z"/>
<path d="M730 1258 c-47 -22 -87 -42 -89 -44 -7 -6 -5 -164 2 -170 3 -4 46 13
94 37 l88 44 0 72 c1 110 3 109 -95 61z"/>
<path d="M518 1243 l-68 -25 0 -69 c0 -73 1 -74 28 -60 9 5 41 20 70 32 l52
23 0 63 c0 35 -3 63 -7 62 -5 0 -38 -12 -75 -26z"/>
<path d="M138 1125 c-35 -18 -38 -24 -38 -62 0 -41 1 -42 26 -33 52 20 61 29
62 62 2 50 -8 57 -50 33z"/>
<path d="M1195 1098 c-55 -28 -102 -52 -103 -53 -6 -5 -4 -206 1 -212 3 -2 51
19 106 47 l101 52 0 109 c0 60 -1 109 -2 108 -2 0 -48 -23 -103 -51z"/>
<path d="M321 1080 c-24 -15 -47 -34 -52 -41 -11 -17 -8 -99 3 -99 15 0 86 39
94 52 10 15 13 93 5 106 -3 5 -26 -3 -50 -18z"/>
<path d="M948 1018 l-98 -51 0 -99 c0 -63 4 -98 11 -98 13 0 136 65 167 88 21
17 23 24 20 114 l-3 97 -97 -51z"/>
<path d="M721 1014 c-41 -19 -77 -36 -79 -39 -5 -5 -6 -174 -1 -179 2 -3 45
16 94 40 l90 45 0 85 c1 99 3 98 -104 48z"/>
<path d="M513 999 l-63 -31 0 -64 c0 -35 2 -64 4 -64 2 0 35 13 73 29 l68 29
3 66 c3 78 3 78 -85 35z"/>
<path d="M138 893 c-36 -14 -38 -18 -38 -59 0 -24 2 -44 4 -44 2 0 22 10 45
22 37 20 41 25 39 60 -1 43 0 42 -50 21z"/>
<path d="M1185 847 l-100 -52 3 -105 c1 -57 4 -106 6 -108 2 -2 35 14 73 35
37 21 83 45 101 52 l32 13 0 109 c0 60 -3 109 -7 109 -5 -1 -53 -24 -108 -53z"/>
<path d="M314 847 l-52 -32 0 -57 1 -58 56 30 56 30 0 60 c0 33 -2 60 -5 60
-3 -1 -28 -15 -56 -33z"/>
<path d="M943 792 l-92 -47 0 -102 c-1 -57 2 -103 7 -103 4 0 36 16 72 35 36
20 77 40 93 46 l27 11 0 104 c0 57 -3 104 -7 103 -5 0 -49 -21 -100 -47z"/>
<path d="M725 788 c-44 -23 -82 -43 -84 -45 -6 -4 -4 -163 2 -170 3 -2 34 9
69 25 35 17 74 35 88 40 25 10 26 13 24 93 -2 99 -2 99 -11 98 -5 0 -44 -19
-88 -41z"/>
<path d="M523 774 l-73 -35 0 -69 0 -70 75 37 75 37 0 68 c0 37 -1 68 -2 67
-2 0 -36 -16 -75 -35z"/>
<path d="M140 656 c-32 -12 -35 -16 -38 -59 l-3 -47 43 20 c40 18 43 22 44 60
1 22 -2 40 -5 39 -3 0 -22 -6 -41 -13z"/>
<path d="M1245 637 c-166 -72 -157 -64 -157 -147 0 -11 0 -50 1 -86 l1 -66 98
52 c53 29 101 55 105 59 4 4 6 53 5 109 l-3 101 -50 -22z"/>
<path d="M320 612 c-57 -33 -58 -35 -58 -94 -1 -56 5 -58 68 -19 44 26 45 29
46 80 0 28 -2 54 -5 56 -3 2 -26 -9 -51 -23z"/>
<path d="M938 544 l-88 -44 0 -100 0 -100 100 50 100 50 0 95 c0 70 -3 95 -12
94 -7 0 -52 -21 -100 -45z"/>
<path d="M715 544 c-38 -20 -72 -38 -74 -40 -6 -6 -4 -165 2 -171 3 -2 45 16
94 40 l89 45 -2 74 c-1 40 -2 76 -3 81 -2 15 -38 5 -106 -29z"/>
<path d="M518 534 l-68 -34 0 -65 c0 -36 2 -65 5 -65 3 0 36 14 75 31 l70 32
0 68 c0 38 -3 69 -7 69 -5 -1 -38 -17 -75 -36z"/>
</g>
</svg>
